<svg width="25" height="24" viewBox="0 0 25 24" fill="none" xmlns="http://www.w3.org/2000/svg">
<path d="M22.5691 2.13278H21.6078V1.40236C21.6078 0.752619 21.0538 0.224976 20.3717 0.224976H19.3783C18.6962 0.224976 18.1423 0.752619 18.1423 1.40236V2.13278H6.85542V1.40672C6.85542 0.756981 6.3015 0.229336 5.61939 0.229336H4.62598C3.94387 0.229336 3.38995 0.756981 3.38995 1.40672V2.13278H2.42858C1.08954 2.13278 0 3.17063 0 4.44613V21.4616C0 22.7371 1.08954 23.7749 2.42858 23.7749H22.5714C23.9105 23.7749 25 22.7371 25 21.4616V4.44613C25 3.17063 23.9105 2.13278 22.5714 2.13278H22.5691ZM19.2845 1.40236C19.2845 1.3544 19.3257 1.31515 19.376 1.31515H20.3694C20.4198 1.31515 20.461 1.3544 20.461 1.40236V3.59362C20.461 3.64158 20.4198 3.68083 20.3694 3.68083H19.376C19.3257 3.68083 19.2845 3.64158 19.2845 3.59362V1.40236ZM4.53213 1.40672C4.53213 1.35876 4.57333 1.31951 4.62369 1.31951H5.61711C5.66746 1.31951 5.70866 1.35876 5.70866 1.40672V3.59798C5.70866 3.64595 5.66746 3.68519 5.61711 3.68519H4.62369C4.57333 3.68519 4.53213 3.64595 4.53213 3.59798V1.40672ZM1.1399 4.44613C1.1399 3.77241 1.71672 3.22296 2.42401 3.22296H3.38537V3.60016C3.38537 4.2499 3.9393 4.77755 4.62141 4.77755H5.61481C6.29692 4.77755 6.85085 4.2499 6.85085 3.60016V3.22296H18.1377V3.5958C18.1377 4.24554 18.6916 4.77319 19.3737 4.77319H20.3671C21.0493 4.77319 21.6032 4.24554 21.6032 3.5958V3.22296H22.5645C23.2718 3.22296 23.8487 3.77241 23.8487 4.44613V8.09822H1.13532V4.44613H1.1399ZM23.8532 12.9604H17.0459V9.18839H23.8532V12.9604ZM23.8532 17.8248H17.0459V14.0528H23.8532V17.8248ZM1.1399 14.0506H7.94726V17.8226H1.1399V14.0506ZM1.1399 9.18839H7.94726V12.9604H1.1399V9.18839ZM15.9014 12.9604H9.09403V9.18839H15.9014V12.9604ZM9.09403 14.0506H15.9014V17.8226H9.09403V14.0506ZM1.1399 21.4638V18.9149H7.94726V22.6869H2.42401C1.71672 22.6869 1.1399 22.1375 1.1399 21.4638ZM9.09403 18.9149H15.9014V22.6869H9.09403V18.9149ZM23.8532 21.4638C23.8532 22.1375 23.2764 22.6869 22.5691 22.6869H17.0459V18.9149H23.8532V21.4638Z" fill="white"/>
</svg>
