<svg width="63" height="62" viewBox="0 0 63 62" fill="none" xmlns="http://www.w3.org/2000/svg">
<path d="M43.6406 20.2266C44.6379 19.2575 46.2604 19.2577 47.2578 20.2266C48.2472 21.1878 48.2472 22.7399 47.2578 23.7012L28.6582 41.7734C28.1613 42.2561 27.5073 42.5 26.8496 42.5C26.192 42.4999 25.5379 42.2562 25.041 41.7734L15.7422 32.7373C14.7529 31.776 14.7529 30.224 15.7422 29.2627C16.7396 28.2936 18.362 28.2936 19.3594 29.2627L26.502 36.2031L26.8496 36.542L27.1982 36.2031L43.6406 20.2266Z" fill="#395483" stroke="white"/>
<path d="M31.5 0.5C35.6176 0.5 39.611 1.30681 43.373 2.89746C47.005 4.43393 50.2665 6.63224 53.0674 9.43262C55.8682 12.2329 58.066 15.4944 59.6025 19.127C61.1936 22.8884 62 26.8823 62 31C62 35.1176 61.1932 39.111 59.6025 42.873C58.066 46.5051 55.8682 49.7665 53.0674 52.5674C50.267 55.3678 47.0056 57.5661 43.373 59.1025C39.6351 60.6837 35.6676 61.489 31.5771 61.499H31.5C27.3829 61.499 23.3894 60.6921 19.6279 59.1016C15.9959 57.5651 12.7345 55.3668 9.93359 52.5664C7.13321 49.766 4.93492 46.5046 3.39844 42.8721C1.80736 39.1106 1 35.1171 1 31C1 26.8829 1.80681 22.889 3.39746 19.127C4.93393 15.495 7.13224 12.2335 9.93262 9.43262C12.7335 6.63222 15.9945 4.43392 19.627 2.89746C23.3885 1.30682 27.3824 0.5 31.5 0.5ZM31.5 5.57422C28.0674 5.57422 24.7369 6.24583 21.6035 7.57129C18.5763 8.85196 15.8568 10.6862 13.5215 13.0215C11.1862 15.3568 9.35196 18.0763 8.07129 21.1035C6.74583 24.2369 6.07422 27.5674 6.07422 31C6.07422 34.4326 6.74583 37.7631 8.07129 40.8965C9.35196 43.9237 11.1862 46.6432 13.5215 48.9785C15.8568 51.3138 18.5763 53.148 21.6035 54.4287C24.7369 55.7542 28.0674 56.4258 31.5 56.4258C34.9326 56.4258 38.2631 55.7542 41.3965 54.4287C44.4237 53.148 47.1432 51.3138 49.4785 48.9785C51.8138 46.6432 53.648 43.9237 54.9287 40.8965C56.2542 37.7631 56.9258 34.4326 56.9258 31C56.9258 27.5674 56.2542 24.2369 54.9287 21.1035C53.648 18.0763 51.8138 15.3568 49.4785 13.0215C47.1432 10.6862 44.4237 8.85196 41.3965 7.57129C38.2631 6.24583 34.9326 5.57422 31.5 5.57422Z" fill="#395483" stroke="white"/>
</svg>
